<svg width="16" height="15" viewBox="0 0 16 15" fill="none" xmlns="http://www.w3.org/2000/svg">
<path d="M8 11.6C9 11.6 9.85 11.25 10.55 10.55C11.25 9.85 11.6 9 11.6 8C11.6 7 11.25 6.15 10.55 5.45C9.85 4.75 9 4.4 8 4.4C7 4.4 6.15 4.75 5.45 5.45C4.75 6.15 4.4 7 4.4 8C4.4 9 4.75 9.85 5.45 10.55C6.15 11.25 7 11.6 8 11.6ZM8 10C7.44 10 6.96667 9.80667 6.58 9.42C6.19333 9.03333 6 8.56 6 8C6 7.44 6.19333 6.96667 6.58 6.58C6.96667 6.19333 7.44 6 8 6C8.56 6 9.03333 6.19333 9.42 6.58C9.80667 6.96667 10 7.44 10 8C10 8.56 9.80667 9.03333 9.42 9.42C9.03333 9.80667 8.56 10 8 10ZM1.6 14.4C1.16 14.4 0.783333 14.2433 0.47 13.93C0.156667 13.6167 0 13.24 0 12.8V3.2C0 2.76 0.156667 2.38333 0.47 2.07C0.783333 1.75667 1.16 1.6 1.6 1.6H4.12L5.12 0.52C5.26667 0.36 5.44333 0.233333 5.65 0.14C5.85667 0.0466667 6.07333 0 6.3 0H9.7C9.92667 0 10.1433 0.0466667 10.35 0.14C10.5567 0.233333 10.7333 0.36 10.88 0.52L11.88 1.6H14.4C14.84 1.6 15.2167 1.75667 15.53 2.07C15.8433 2.38333 16 2.76 16 3.2V12.8C16 13.24 15.8433 13.6167 15.53 13.93C15.2167 14.2433 14.84 14.4 14.4 14.4H1.6Z" fill="white"/>
</svg>
